<svg width="62" height="57" viewBox="0 0 62 57" fill="none" xmlns="http://www.w3.org/2000/svg">
<path d="M58.9162 56.9646C57.8699 56.735 57.0686 55.698 57.0166 54.513C56.9573 53.1501 57.6696 52.1058 58.8494 51.8021C60.0589 51.491 61.261 52.0688 61.7804 53.202C62.0549 53.8167 62.0772 54.7648 61.8175 55.4166C61.4613 56.3202 60.6154 56.9423 59.6731 56.9942C59.3985 57.009 59.0572 56.9942 58.9162 56.9646ZM60.6303 56.335C61.0161 56.0758 61.4094 55.4684 61.5578 54.8907C61.8249 53.839 61.3055 52.7057 60.3334 52.2169C59.9105 52.0095 59.124 52.0021 58.6639 52.2021C58.0629 52.4761 57.6102 53.1131 57.4322 53.9426C57.2763 54.7055 57.5806 55.6388 58.1593 56.1572C58.5749 56.5276 58.7381 56.609 59.2501 56.6609C59.7695 56.7127 60.2073 56.609 60.6303 56.335Z" fill="#221E1F"/>
<path d="M58.4265 55.8536C58.5378 55.735 58.5526 55.5499 58.5304 54.3204C58.5155 53.5501 58.4784 52.8613 58.4413 52.7798C58.3746 52.6539 58.4117 52.6465 59.1463 52.6761C60.1035 52.7131 60.4522 52.8539 60.6155 53.276C60.7713 53.6908 60.6303 54.0908 60.2519 54.3278L59.9625 54.513L60.3335 55.1203C60.5338 55.461 60.7342 55.7647 60.7787 55.8091C60.9197 55.9498 60.8381 56.0017 60.5338 55.9795C60.2222 55.9572 60.2148 55.9498 59.8363 55.2981C59.2501 54.2907 59.0646 54.2685 59.0646 55.187C59.0646 55.6462 59.0869 55.7869 59.1759 55.8165C59.4282 55.9128 59.2576 55.9943 58.7901 55.9943C58.3152 55.9943 58.3004 55.9869 58.4265 55.8536ZM60.0367 54.0611C60.2519 53.7797 60.2222 53.3575 59.9625 53.0983C59.7844 52.9205 59.6805 52.8835 59.406 52.8835H59.0646V53.5723C59.0646 53.9575 59.0795 54.2833 59.1017 54.3056C59.124 54.3204 59.3095 54.313 59.5173 54.2908C59.7992 54.2537 59.9328 54.1945 60.0367 54.0611Z" fill="#221E1F"/>
<path d="M0 56.7053C0 56.6016 1.81053 53.4464 4.25177 49.2765C9.80207 39.8256 20.1607 22.1829 26.5123 11.3692C29.2875 6.64377 31.5655 2.75527 31.5877 2.71824C31.6026 2.68861 27.1876 2.6738 21.7634 2.68121L11.9094 2.70343L11.3158 2.91081C9.18619 3.66629 7.17532 5.38464 2.67127 10.3323C1.56566 11.547 1.18723 11.8506 1.18723 11.5099C1.18723 11.3618 2.73063 0.407366 2.78257 0.162946L2.81967 0H22.2977C34.0067 0 41.7831 0.0296267 41.8053 0.06666C41.835 0.103693 41.8202 0.2222 41.7757 0.333299C41.7089 0.503652 39.6015 4.16994 34.912 12.258C33.2647 15.0948 20.0494 37.9221 19.0699 39.6256C15.6714 45.5213 9.37912 56.3794 9.23071 56.609L9.05263 56.8831H4.52632H0V56.7053Z" fill="white"/>
<path d="M13.7644 56.809C13.6976 56.7053 13.8906 56.298 14.4248 55.4166C14.6845 54.9796 15.4117 53.7427 16.0424 52.6613C17.2519 50.5948 22.9432 40.9069 32.0032 25.4789C37.1454 16.7242 40.0541 11.7618 44.8253 3.62926L46.9327 0.0370333L51.2586 0.0148131L55.5772 0V0.185166C55.5772 0.281453 55.4807 0.525872 55.362 0.718445C55.2507 0.918425 54.4567 2.27384 53.6108 3.74036C52.7575 5.20688 51.2661 7.7918 50.2866 9.48052C49.3071 11.1692 48.0308 13.369 47.4521 14.3689C46.8733 15.3688 45.085 18.45 43.4823 21.2201C40.0467 27.1528 35.4685 35.0557 33.3537 38.6998C32.5301 40.1292 31.187 42.4401 30.3708 43.8474C29.5546 45.2546 27.885 48.1432 26.6533 50.269C25.4215 52.3947 24.4124 54.15 24.4124 54.1723C24.4124 54.1945 29.0945 54.2167 34.8229 54.2167C46.2055 54.2167 45.5006 54.2389 46.5913 53.7871C48.6987 52.8983 51.8374 49.6986 55.2284 44.9806C55.8146 44.1511 56.0224 43.9215 56.1485 43.9215C56.245 43.9215 56.3192 43.9363 56.3192 43.9585C56.3192 44.0029 55.3026 52.4243 54.9836 55.0092C54.8574 56.0017 54.761 56.8238 54.761 56.8461C54.761 56.9201 13.8089 56.8831 13.7644 56.809Z" fill="#CEA54B"/>
</svg>
