<svg width="1306" height="1199" viewBox="0 0 1306 1199" fill="none" xmlns="http://www.w3.org/2000/svg">
<g opacity="0.03">
<path d="M1240.9 1198.25C1218.86 1193.42 1201.99 1171.61 1200.89 1146.69C1199.64 1118.02 1214.64 1096.05 1239.49 1089.66C1264.96 1083.12 1290.27 1095.27 1301.21 1119.11C1307 1132.04 1307.46 1151.98 1301.99 1165.69C1294.49 1184.7 1276.68 1197.79 1256.83 1198.88C1251.05 1199.19 1243.86 1198.88 1240.9 1198.25ZM1276.99 1185.01C1285.12 1179.56 1293.4 1166.78 1296.53 1154.63C1302.15 1132.51 1291.21 1108.67 1270.74 1098.39C1261.84 1094.02 1245.27 1093.87 1235.58 1098.08C1222.93 1103.84 1213.39 1117.24 1209.64 1134.69C1206.36 1150.74 1212.77 1170.37 1224.96 1181.27C1233.71 1189.06 1237.15 1190.78 1247.93 1191.87C1258.87 1192.96 1268.09 1190.78 1276.99 1185.01Z" fill="#221E1F"/>
<path d="M1230.58 1174.88C1232.93 1172.39 1233.24 1168.5 1232.77 1142.63C1232.46 1126.43 1231.68 1111.94 1230.89 1110.23C1229.49 1107.58 1230.27 1107.42 1245.74 1108.05C1265.9 1108.82 1273.24 1111.79 1276.68 1120.67C1279.96 1129.39 1276.99 1137.8 1269.02 1142.79L1262.93 1146.68L1270.74 1159.46C1274.96 1166.63 1279.18 1173.01 1280.12 1173.95C1283.09 1176.91 1281.37 1178 1274.96 1177.53C1268.4 1177.07 1268.24 1176.91 1260.27 1163.2C1247.93 1142.01 1244.02 1141.54 1244.02 1160.86C1244.02 1170.52 1244.49 1173.48 1246.36 1174.1C1251.68 1176.13 1248.08 1177.84 1238.24 1177.84C1228.24 1177.84 1227.93 1177.69 1230.58 1174.88ZM1264.49 1137.18C1269.02 1131.26 1268.4 1122.38 1262.93 1116.93C1259.18 1113.19 1256.99 1112.41 1251.21 1112.41H1244.02V1126.9C1244.02 1135 1244.33 1141.85 1244.8 1142.32C1245.27 1142.63 1249.18 1142.48 1253.55 1142.01C1259.49 1141.23 1262.3 1139.98 1264.49 1137.18Z" fill="#221E1F"/>
<path d="M0.163574 1192.8C0.163574 1190.62 38.2919 1124.25 89.7026 1036.53C206.588 837.734 424.732 466.62 558.493 239.152C616.936 139.752 664.909 57.9574 665.377 57.1784C665.69 56.5552 572.713 56.2436 458.484 56.3994L250.967 56.8668L238.465 61.2292C193.618 77.1208 151.27 113.266 56.4184 217.34C33.1352 242.892 25.1657 249.279 25.1657 242.113C25.1657 238.997 57.6685 8.56897 58.7624 3.42759L59.5437 0H469.735C716.319 0 880.083 0.623201 880.552 1.4022C881.177 2.1812 880.865 4.67399 879.927 7.01098C878.521 10.5944 834.142 87.7152 735.383 257.848C700.693 317.52 422.388 797.694 401.761 833.528C330.192 957.544 197.681 1185.95 194.555 1190.78L190.805 1196.54H95.4843H0.163574V1192.8Z" fill="white"/>
<path d="M290.032 1194.98C288.626 1192.8 292.689 1184.23 303.94 1165.69C309.409 1156.5 324.723 1130.48 338.005 1107.74C363.476 1064.27 483.33 860.481 674.128 535.951C782.419 351.795 843.674 247.41 944.151 76.3418L988.53 0.778998L1079.63 0.311594L1170.58 0V3.89499C1170.58 5.92038 1168.55 11.0618 1166.05 15.1126C1163.7 19.3191 1146.98 47.8305 1129.17 78.6788C1111.2 109.527 1079.79 163.901 1059.16 199.423C1038.53 234.946 1011.66 281.218 999.469 302.251C987.28 323.284 949.621 388.097 915.868 446.366C843.518 571.161 747.103 737.399 702.568 814.053C685.223 844.122 656.939 892.732 639.75 922.334C622.561 951.935 587.402 1012.7 561.462 1057.41C535.522 1102.13 514.27 1139.05 514.27 1139.52C514.27 1139.99 612.873 1140.45 733.508 1140.45C973.216 1140.45 958.371 1140.92 981.342 1131.42C1025.72 1112.72 1091.82 1045.42 1163.23 946.171C1175.58 928.721 1179.95 923.892 1182.61 923.892C1184.64 923.892 1186.2 924.203 1186.2 924.671C1186.2 925.605 1164.8 1102.75 1158.08 1157.12C1155.42 1178 1153.39 1195.29 1153.39 1195.76C1153.39 1197.32 290.97 1196.54 290.032 1194.98Z" fill="#CEA54B"/>
</g>
</svg>
