<svg width="24" height="25" viewBox="0 0 24 25" fill="none" xmlns="http://www.w3.org/2000/svg">
<path d="M2 2.5H11V11.5H2V2.5ZM4 4.5V9.5H9V4.5H4ZM17.5 4.5C16.837 4.5 16.2011 4.76339 15.7322 5.23223C15.2634 5.70107 15 6.33696 15 7C15 7.66304 15.2634 8.29893 15.7322 8.76777C16.2011 9.23661 16.837 9.5 17.5 9.5C18.163 9.5 18.7989 9.23661 19.2678 8.76777C19.7366 8.29893 20 7.66304 20 7C20 6.33696 19.7366 5.70107 19.2678 5.23223C18.7989 4.76339 18.163 4.5 17.5 4.5ZM13 7C13 6.40905 13.1164 5.82389 13.3425 5.27792C13.5687 4.73196 13.9002 4.23588 14.318 3.81802C14.7359 3.40016 15.232 3.06869 15.7779 2.84254C16.3239 2.6164 16.9091 2.5 17.5 2.5C18.0909 2.5 18.6761 2.6164 19.2221 2.84254C19.768 3.06869 20.2641 3.40016 20.682 3.81802C21.0998 4.23588 21.4313 4.73196 21.6575 5.27792C21.8836 5.82389 22 6.40905 22 7C22 8.19347 21.5259 9.33807 20.682 10.182C19.8381 11.0259 18.6935 11.5 17.5 11.5C16.3065 11.5 15.1619 11.0259 14.318 10.182C13.4741 9.33807 13 8.19347 13 7ZM2 13.5H11V22.5H2V13.5ZM4 15.5V20.5H9V15.5H4ZM13 13.5H22V22.5H13V13.5ZM15 15.5V20.5H20V15.5H15Z" fill="white"/>
</svg>
