<svg width="70" height="70" viewBox="0 0 70 70" fill="none" xmlns="http://www.w3.org/2000/svg">
<path d="M36.75 26.625C43.2739 26.625 48.5625 21.3364 48.5625 14.8125C48.5625 8.28864 43.2739 3 36.75 3C30.2261 3 24.9375 8.28864 24.9375 14.8125C24.9375 21.3364 30.2261 26.625 36.75 26.625Z" stroke="white" stroke-width="5.58333" stroke-linecap="round" stroke-linejoin="round"/>
<path d="M3 65.4375C3 50.5251 16.5996 38.4375 33.375 38.4375M43.5 45.525C43.5 43.7244 55.3125 40.125 55.3125 40.125C55.3125 40.125 67.125 43.7244 67.125 45.525C67.125 59.9244 55.3125 67.125 55.3125 67.125C55.3125 67.125 43.5 59.9244 43.5 45.525Z" stroke="white" stroke-width="5.58333" stroke-linecap="round" stroke-linejoin="round"/>
</svg>
