<svg width="84" height="84" viewBox="0 0 84 84" fill="none" xmlns="http://www.w3.org/2000/svg">
<path fill-rule="evenodd" clip-rule="evenodd" d="M41.4354 0H41.8771C50.8245 0 57.8344 2.30968e-07 63.3059 0.73625C68.9014 1.488 73.3189 3.06125 76.787 6.5255C80.2551 9.99362 81.8245 14.4111 82.5762 20.0105C83.3125 25.4781 83.3125 32.488 83.3125 41.4354V41.8771C83.3125 50.8245 83.3125 57.8344 82.5762 63.3059C81.8245 68.9014 80.2512 73.3189 76.787 76.787C73.3189 80.2551 68.9014 81.8245 63.302 82.5762C57.8344 83.3125 50.8245 83.3125 41.8771 83.3125H41.4354C32.488 83.3125 25.4781 83.3125 20.0066 82.5762C14.4111 81.8245 9.99362 80.2512 6.5255 76.787C3.05738 73.3189 1.488 68.9014 0.73625 63.302C2.30968e-07 57.8344 0 50.8245 0 41.8771V41.4354C0 32.488 2.30968e-07 25.4781 0.73625 20.0066C1.488 14.4111 3.06125 9.99362 6.5255 6.5255C9.99362 3.05738 14.4111 1.488 20.0105 0.73625C25.4781 2.30968e-07 32.488 0 41.4354 0ZM20.7816 6.4945C15.8294 7.161 12.8417 8.432 10.6369 10.6369C8.42812 12.8456 7.161 15.8294 6.4945 20.7855C5.82025 25.823 5.8125 32.4415 5.8125 41.6562C5.8125 50.871 5.82025 57.4895 6.4945 62.527C7.161 67.4831 8.432 70.4708 10.6369 72.6795C12.8456 74.8844 15.8294 76.1515 20.7855 76.818C25.823 77.4922 32.4415 77.5 41.6562 77.5C50.871 77.5 57.4895 77.4922 62.527 76.818C67.4831 76.1515 70.4708 74.8805 72.6795 72.6756C74.8844 70.4669 76.1515 67.4831 76.818 62.527C77.4922 57.4895 77.5 50.871 77.5 41.6562C77.5 32.4415 77.4922 25.823 76.818 20.7855C76.1515 15.8294 74.8805 12.8417 72.6756 10.633C70.4669 8.42812 67.4831 7.161 62.527 6.4945C57.4895 5.82025 50.871 5.8125 41.6562 5.8125C32.4415 5.8125 25.8191 5.82025 20.7816 6.4945Z" fill="white"/>
<path fill-rule="evenodd" clip-rule="evenodd" d="M57.3384 23.25H57.8344C59.3262 23.25 60.4112 23.25 61.3606 23.3973C65.131 23.9901 68.6417 26.4275 69.5911 30.2017C69.8236 31.1317 69.8236 32.1703 69.8236 33.2708V48.5654C69.8236 49.6659 69.8236 50.7044 69.5911 51.6344C69.4257 52.2881 69.1783 52.9182 68.8549 53.5099L70.5831 54.8778C70.8957 55.1097 71.1584 55.402 71.3558 55.7374C71.5533 56.0727 71.6813 56.4443 71.7324 56.8301C71.7835 57.2159 71.7566 57.6081 71.6532 57.9833C71.5499 58.3585 71.3723 58.7091 71.1309 59.0144C70.8895 59.3196 70.5892 59.5733 70.2479 59.7603C69.9066 59.9473 69.5313 60.0639 69.1441 60.1031C68.7569 60.1423 68.3658 60.1034 67.9939 59.9885C67.6221 59.8737 67.2771 59.6854 66.9794 59.4347L64.4994 57.4779C63.5113 57.9429 62.4456 58.2684 61.3606 58.4389C60.4112 58.5861 59.3262 58.5861 57.8344 58.5861H57.3384C55.8465 58.5861 54.7654 58.5861 53.8121 58.4389C50.0456 57.846 46.531 55.4125 45.5816 51.6344C45.3491 50.7044 45.3491 49.6659 45.3491 48.5654V33.2708C45.3491 32.1703 45.3491 31.1317 45.5816 30.2017C46.531 26.4275 50.0456 23.9901 53.8121 23.3973C54.7654 23.25 55.8465 23.25 57.3384 23.25ZM63.9995 49.6659L63.1199 48.9722C62.5846 48.5484 61.9172 48.3265 61.2346 48.3455C60.5521 48.3645 59.8981 48.6232 59.3872 49.0763C58.8764 49.5293 58.5414 50.1478 58.4409 50.8231C58.3405 51.4985 58.4811 52.1877 58.838 52.7698L57.5864 52.7736C55.7419 52.7736 55.1568 52.7659 54.7189 52.6961C52.5644 52.3551 51.4484 51.1268 51.2198 50.2161C51.1849 50.0844 51.1655 49.8441 51.1655 48.298V33.5343C51.1655 31.992 51.1849 31.7518 51.2198 31.6161C51.4523 30.7094 52.5644 29.481 54.715 29.14C55.1567 29.0703 55.7419 29.0625 57.5864 29.0625C59.4309 29.0625 60.016 29.0703 60.4539 29.14C62.6084 29.481 63.7244 30.7094 63.953 31.62C63.9879 31.7517 64.0072 31.992 64.0072 33.5381V48.3019C64.0072 48.9645 64.0073 49.3869 63.9995 49.6659ZM18.4062 23.25C19.177 23.25 19.9163 23.5562 20.4613 24.1012C21.0063 24.6462 21.3125 25.3855 21.3125 26.1563V38.75H34.1581V26.1563C34.1581 25.3855 34.4643 24.6462 35.0093 24.1012C35.5544 23.5562 36.2936 23.25 37.0644 23.25C37.8352 23.25 38.5744 23.5562 39.1194 24.1012C39.6644 24.6462 39.9706 25.3855 39.9706 26.1563V55.6838C39.9706 56.4545 39.6644 57.1938 39.1194 57.7388C38.5744 58.2838 37.8352 58.59 37.0644 58.59C36.2936 58.59 35.5544 58.2838 35.0093 57.7388C34.4643 57.1938 34.1581 56.4545 34.1581 55.6838V44.5625H21.3125V55.6838C21.3125 56.4545 21.0063 57.1938 20.4613 57.7388C19.9163 58.2838 19.177 58.59 18.4062 58.59C17.6355 58.59 16.8962 58.2838 16.3512 57.7388C15.8062 57.1938 15.5 56.4545 15.5 55.6838V26.1563C15.5 25.3855 15.8062 24.6462 16.3512 24.1012C16.8962 23.5562 17.6355 23.25 18.4062 23.25Z" fill="white"/>
</svg>
