<svg width="80" height="93" viewBox="0 0 80 93" fill="none" xmlns="http://www.w3.org/2000/svg">
<path d="M39.75 92.75L19.292 81.8419C13.4598 78.7392 8.5826 74.1068 5.18382 68.4419C1.78504 62.7771 -0.00699952 56.2937 2.0546e-05 49.6875V6.625C0.00177444 4.86848 0.700327 3.1844 1.94238 1.94235C3.18442 0.700306 4.8685 0.00175389 6.62502 0H72.875C74.6315 0.00175389 76.3156 0.700306 77.5577 1.94235C78.7997 3.1844 79.4983 4.86848 79.5 6.625V49.6875C79.507 56.2937 77.715 62.7771 74.3162 68.4419C70.9174 74.1068 66.0402 78.7392 60.208 81.8419L39.75 92.75ZM6.62502 6.625V49.6875C6.61952 55.0929 8.08617 60.3977 10.8676 65.0325C13.6489 69.6673 17.64 73.4572 22.4124 75.9954L39.75 85.2406L57.0876 75.9987C61.8605 73.4603 65.8519 69.6699 68.6333 65.0344C71.4147 60.3989 72.8811 55.0934 72.875 49.6875V6.625H6.62502Z" fill="white"/>
<path d="M33.1563 49.0853L24.6173 37.1875L19.9688 43.6647L33.1563 62.0397L59.5313 25.2897L54.8827 18.8125L33.1563 49.0853Z" fill="white"/>
</svg>
