<svg width="84" height="84" viewBox="0 0 84 84" fill="none" xmlns="http://www.w3.org/2000/svg">
<path d="M58.4719 45.0187C62.8687 40.6219 65.2969 34.7648 65.2969 28.5469C65.2969 22.3207 62.877 16.4719 58.4719 12.075C54.075 7.67812 48.218 5.25 42 5.25C35.782 5.25 29.925 7.66992 25.5281 12.075C21.1313 16.4801 18.7031 22.3207 18.7031 28.5469C18.7031 33.7805 20.4176 38.7516 23.5758 42.8121C24.1746 43.5832 24.8227 44.3133 25.5199 45.0187C26.2172 45.716 26.9555 46.3641 27.7184 46.9629C30.9668 49.4895 34.7977 51.0973 38.8828 51.6387V60.375H29.5312C29.1703 60.375 28.875 60.6703 28.875 61.0312V65.9531C28.875 66.3141 29.1703 66.6094 29.5312 66.6094H38.8828V78.0938C38.8828 78.4547 39.1781 78.75 39.5391 78.75H44.4609C44.8219 78.75 45.1172 78.4547 45.1172 78.0938V66.6094H54.4688C54.8297 66.6094 55.125 66.3141 55.125 65.9531V61.0312C55.125 60.6703 54.8297 60.375 54.4688 60.375H45.1172V51.6387C50.1621 50.966 54.8133 48.6773 58.4719 45.0187ZM42 45.6094C37.4391 45.6094 33.1652 43.8375 29.9332 40.6137C26.7094 37.3898 24.9375 33.1078 24.9375 28.5469C24.9375 23.9859 26.7094 19.7121 29.9332 16.4801C33.157 13.248 37.4391 11.4844 42 11.4844C46.5609 11.4844 50.8348 13.2562 54.0668 16.4801C57.2906 19.7039 59.0625 23.9859 59.0625 28.5469C59.0625 33.1078 57.2906 37.3816 54.0668 40.6137C50.8348 43.8375 46.5609 45.6094 42 45.6094Z" fill="white"/>
<path fill-rule="evenodd" clip-rule="evenodd" d="M68.4878 13.3636C68.8954 13.7714 69.1243 14.3243 69.1243 14.9008C69.1243 15.4774 68.8954 16.0303 68.4878 16.438L47.8325 37.0933C47.4247 37.5009 46.8718 37.7299 46.2953 37.7299C45.7187 37.7299 45.1658 37.5009 44.7581 37.0933L34.974 27.3092C34.5779 26.8992 34.3588 26.3499 34.3637 25.7799C34.3687 25.2098 34.5973 24.6645 35.0005 24.2613C35.4036 23.8582 35.9489 23.6296 36.519 23.6246C37.0891 23.6196 37.6383 23.8388 38.0484 24.2349L46.2953 32.4818L65.4134 13.3636C65.8211 12.956 66.374 12.7271 66.9506 12.7271C67.5271 12.7271 68.08 12.956 68.4878 13.3636Z" fill="white"/>
</svg>
