<svg width="107" height="80" viewBox="0 0 107 80" fill="none" xmlns="http://www.w3.org/2000/svg">
<path d="M100 80C100 80 106.667 80 106.667 73.3333C106.667 66.6667 100 46.6667 73.3333 46.6667C46.6667 46.6667 40 66.6667 40 73.3333C40 80 46.6667 80 46.6667 80H100ZM46.8133 73.3333L46.6667 73.3067C46.6733 71.5467 47.78 66.44 51.7333 61.84C55.4133 57.5267 61.88 53.3333 73.3333 53.3333C84.78 53.3333 91.2467 57.5333 94.9333 61.84C98.8867 66.44 99.9867 71.5533 100 73.3067L99.9467 73.32L99.8533 73.3333H46.8133ZM73.3333 33.3333C76.8696 33.3333 80.2609 31.9286 82.7614 29.4281C85.2619 26.9276 86.6667 23.5362 86.6667 20C86.6667 16.4638 85.2619 13.0724 82.7614 10.5719C80.2609 8.07142 76.8696 6.66667 73.3333 6.66667C69.7971 6.66667 66.4057 8.07142 63.9052 10.5719C61.4048 13.0724 60 16.4638 60 20C60 23.5362 61.4048 26.9276 63.9052 29.4281C66.4057 31.9286 69.7971 33.3333 73.3333 33.3333ZM93.3333 20C93.3333 22.6264 92.816 25.2272 91.8109 27.6537C90.8058 30.0802 89.3326 32.285 87.4755 34.1421C85.6183 35.9993 83.4135 37.4725 80.987 38.4776C78.5605 39.4827 75.9598 40 73.3333 40C70.7069 40 68.1062 39.4827 65.6797 38.4776C63.2532 37.4725 61.0484 35.9993 59.1912 34.1421C57.334 32.285 55.8608 30.0802 54.8557 27.6537C53.8506 25.2272 53.3333 22.6264 53.3333 20C53.3333 14.6957 55.4405 9.60859 59.1912 5.85786C62.9419 2.10714 68.029 0 73.3333 0C78.6377 0 83.7247 2.10714 87.4755 5.85786C91.2262 9.60859 93.3333 14.6957 93.3333 20ZM46.24 48.5333C43.5717 47.6994 40.8234 47.1475 38.04 46.8867C36.4758 46.7341 34.9049 46.6607 33.3333 46.6667C6.66667 46.6667 0 66.6667 0 73.3333C0 77.7778 2.22222 80 6.66667 80H34.7733C33.7855 77.9186 33.2926 75.6369 33.3333 73.3333C33.3333 66.6 35.8467 59.72 40.6 53.9733C42.22 52.0133 44.1067 50.18 46.24 48.5333ZM32.8 53.3333C28.8568 59.263 26.7256 66.2125 26.6667 73.3333H6.66667C6.66667 71.6 7.76 66.4667 11.7333 61.84C15.3667 57.6 21.68 53.4667 32.8 53.34V53.3333ZM10 23.3333C10 18.029 12.1071 12.9419 15.8579 9.1912C19.6086 5.44047 24.6957 3.33333 30 3.33333C35.3043 3.33333 40.3914 5.44047 44.1421 9.1912C47.8929 12.9419 50 18.029 50 23.3333C50 28.6377 47.8929 33.7247 44.1421 37.4755C40.3914 41.2262 35.3043 43.3333 30 43.3333C24.6957 43.3333 19.6086 41.2262 15.8579 37.4755C12.1071 33.7247 10 28.6377 10 23.3333ZM30 10C26.4638 10 23.0724 11.4048 20.5719 13.9052C18.0714 16.4057 16.6667 19.7971 16.6667 23.3333C16.6667 26.8696 18.0714 30.2609 20.5719 32.7614C23.0724 35.2619 26.4638 36.6667 30 36.6667C33.5362 36.6667 36.9276 35.2619 39.4281 32.7614C41.9286 30.2609 43.3333 26.8696 43.3333 23.3333C43.3333 19.7971 41.9286 16.4057 39.4281 13.9052C36.9276 11.4048 33.5362 10 30 10Z" fill="white"/>
</svg>
