<svg width="65" height="65" viewBox="0 0 65 65" fill="none" xmlns="http://www.w3.org/2000/svg">
<path d="M59.8812 58.121L6.47289 4.68555L3.00623 8.12513L17.0896 22.2085L16.25 24.3751H19.2562L23.3187 28.4376H5.41664V32.5001H27.3812L36.5625 41.6272C36.2375 42.2772 36.0208 42.9272 35.8583 43.6043C33.2854 42.4939 30.9021 42.7918 29.1416 43.5772C28.0312 38.7564 23.8062 35.2085 18.7958 35.2085C12.9187 35.2085 8.12498 40.0564 8.12498 46.0418C8.12498 52.0272 12.9187 56.8751 18.7958 56.8751C24.375 56.8751 28.925 52.4876 29.3583 46.9085C30.2791 46.2585 32.6896 45.0397 35.6416 46.9626C36.1291 52.5147 40.625 56.8751 46.2041 56.8751C47.8291 56.8751 49.3458 56.496 50.7 55.8189L56.4416 61.5605L59.8812 58.121ZM18.7958 53.7876C14.5708 53.7876 11.1854 50.321 11.1854 46.0418C11.1854 41.7626 14.5979 38.296 18.7958 38.296C23.0208 38.296 26.4062 41.7626 26.4062 46.0418C26.4062 50.321 23.0208 53.7876 18.7958 53.7876ZM46.2041 53.7876C41.9791 53.7876 38.5937 50.321 38.5937 46.0418C38.5937 45.3376 38.7021 44.6876 38.8916 44.0105L48.3166 53.4355C47.6396 53.6522 46.9625 53.7876 46.2041 53.7876ZM59.5833 32.5001H41.1666L37.1041 28.4376H59.5833V32.5001ZM46.2041 35.2085C52.0812 35.2085 56.875 40.0564 56.875 46.0418C56.875 46.7189 56.7937 47.396 56.6854 48.0189L53.7333 45.0668C53.531 43.3672 52.7648 41.7845 51.5569 40.5718C50.3491 39.3591 48.7696 38.5864 47.0708 38.3772L44.1187 35.4522C44.7958 35.2897 45.5 35.2085 46.2041 35.2085ZM33.0416 24.3751L20.9083 12.1876L22.8312 7.25846C23.3729 5.87721 24.8896 5.11888 26.325 5.52513L26.4604 5.55221L32.5 7.55638L38.5125 5.55221C39.9479 5.0918 41.4916 5.79596 42.0875 7.12305L42.1416 7.25846L48.75 24.3751H33.0416Z" fill="white"/>
</svg>
