<svg width="67" height="67" viewBox="0 0 67 67" fill="none" xmlns="http://www.w3.org/2000/svg">
<path d="M50.2501 13.9574H53.0418V16.7491C53.0418 17.4895 53.3359 18.1996 53.8594 18.7231C54.383 19.2466 55.093 19.5408 55.8334 19.5408C56.5738 19.5408 57.2839 19.2466 57.8074 18.7231C58.331 18.1996 58.6251 17.4895 58.6251 16.7491V13.9574H61.4168C62.1572 13.9574 62.8672 13.6633 63.3908 13.1398C63.9143 12.6162 64.2084 11.9062 64.2084 11.1658C64.2084 10.4254 63.9143 9.7153 63.3908 9.19176C62.8672 8.66822 62.1572 8.3741 61.4168 8.3741H58.6251V5.58243C58.6251 4.84203 58.331 4.13196 57.8074 3.60842C57.2839 3.08488 56.5738 2.79076 55.8334 2.79076C55.093 2.79076 54.383 3.08488 53.8594 3.60842C53.3359 4.13196 53.0418 4.84203 53.0418 5.58243V8.3741H50.2501C49.5097 8.3741 48.7996 8.66822 48.2761 9.19176C47.7526 9.7153 47.4584 10.4254 47.4584 11.1658C47.4584 11.9062 47.7526 12.6162 48.2761 13.1398C48.7996 13.6633 49.5097 13.9574 50.2501 13.9574ZM19.5418 19.5408V47.4574C19.5418 48.1978 19.8359 48.9079 20.3594 49.4314C20.883 49.955 21.593 50.2491 22.3334 50.2491C23.0738 50.2491 23.7839 49.955 24.3074 49.4314C24.831 48.9079 25.1251 48.1978 25.1251 47.4574V19.5408C25.1251 18.8004 24.831 18.0903 24.3074 17.5668C23.7839 17.0432 23.0738 16.7491 22.3334 16.7491C21.593 16.7491 20.883 17.0432 20.3594 17.5668C19.8359 18.0903 19.5418 18.8004 19.5418 19.5408ZM60.3001 25.1241C59.9408 25.1973 59.5994 25.3407 59.2955 25.5459C58.9916 25.7511 58.7311 26.0142 58.5289 26.3201C58.3267 26.626 58.1867 26.9687 58.117 27.3287C58.0473 27.6888 58.0492 28.059 58.1226 28.4183C59.2126 33.7118 58.5666 39.2158 56.2804 44.1131C53.9943 49.0104 50.1899 53.04 45.4321 55.6037C40.6742 58.1674 35.2164 59.1286 29.869 58.3446C24.5215 57.5605 19.5694 55.073 15.7478 51.2514C11.9261 47.4297 9.43868 42.4777 8.65463 37.1302C7.87059 31.7827 8.83177 26.325 11.3955 21.5671C13.9592 16.8093 17.9888 13.0049 22.8861 10.7188C27.7834 8.43264 33.2874 7.78662 38.5809 8.8766C39.3213 9.02468 40.0902 8.87257 40.7185 8.45374C41.3467 8.03491 41.7829 7.38366 41.9309 6.64326C42.079 5.90287 41.9269 5.13397 41.5081 4.50572C41.0892 3.87748 40.438 3.44134 39.6976 3.29326C37.6546 2.91262 35.5777 2.74423 33.5001 2.79076C27.4266 2.79076 21.4894 4.59178 16.4395 7.96605C11.3895 11.3403 7.45354 16.1363 5.12929 21.7475C2.80505 27.3587 2.19693 33.5332 3.38181 39.49C4.5667 45.4468 7.49139 50.9185 11.786 55.2132C16.0807 59.5078 21.5524 62.4325 27.5092 63.6174C33.466 64.8023 39.6405 64.1941 45.2517 61.8699C50.8629 59.5457 55.6589 55.6097 59.0331 50.5597C62.4074 45.5098 64.2084 39.5726 64.2084 33.4991C64.2144 31.4363 64.0086 29.3783 63.5943 27.3574C63.5274 26.9931 63.3887 26.6457 63.1862 26.3355C62.9838 26.0253 62.7216 25.7586 62.415 25.5507C62.1084 25.3428 61.7635 25.1981 61.4004 25.1248C61.0373 25.0516 60.6633 25.0513 60.3001 25.1241ZM30.7084 25.1241V27.9158C30.7207 29.9817 31.4963 31.9703 32.8859 33.4991C31.4963 35.0279 30.7207 37.0164 30.7084 39.0824V41.8741C30.7084 44.0953 31.5908 46.2255 33.1614 47.7961C34.732 49.3667 36.8622 50.2491 39.0834 50.2491H41.8751C44.0963 50.2491 46.2265 49.3667 47.7971 47.7961C49.3677 46.2255 50.2501 44.0953 50.2501 41.8741V39.0824C50.2378 37.0164 49.4623 35.0279 48.0726 33.4991C49.4623 31.9703 50.2378 29.9817 50.2501 27.9158V25.1241C50.2501 22.9029 49.3677 20.7727 47.7971 19.2021C46.2265 17.6315 44.0963 16.7491 41.8751 16.7491H39.0834C36.8622 16.7491 34.732 17.6315 33.1614 19.2021C31.5908 20.7727 30.7084 22.9029 30.7084 25.1241ZM44.6668 41.8741C44.6668 42.6145 44.3726 43.3246 43.8491 43.8481C43.3256 44.3716 42.6155 44.6658 41.8751 44.6658H39.0834C38.343 44.6658 37.633 44.3716 37.1094 43.8481C36.5859 43.3246 36.2918 42.6145 36.2918 41.8741V39.0824C36.2918 38.342 36.5859 37.632 37.1094 37.1084C37.633 36.5849 38.343 36.2908 39.0834 36.2908H41.8751C42.6155 36.2908 43.3256 36.5849 43.8491 37.1084C44.3726 37.632 44.6668 38.342 44.6668 39.0824V41.8741ZM44.6668 25.1241V27.9158C44.6668 28.6562 44.3726 29.3662 43.8491 29.8898C43.3256 30.4133 42.6155 30.7074 41.8751 30.7074H39.0834C38.343 30.7074 37.633 30.4133 37.1094 29.8898C36.5859 29.3662 36.2918 28.6562 36.2918 27.9158V25.1241C36.2918 24.3837 36.5859 23.6736 37.1094 23.1501C37.633 22.6266 38.343 22.3324 39.0834 22.3324H41.8751C42.6155 22.3324 43.3256 22.6266 43.8491 23.1501C44.3726 23.6736 44.6668 24.3837 44.6668 25.1241Z" fill="white"/>
</svg>
