<svg width="34" height="34" viewBox="0 0 34 34" fill="none" xmlns="http://www.w3.org/2000/svg">
<path fill-rule="evenodd" clip-rule="evenodd" d="M3.91173 17.0137C3.91191 16.7321 4.02383 16.4621 4.22293 16.263C4.42203 16.0639 4.69201 15.952 4.97357 15.9518L29.0152 15.9518C29.1578 15.9468 29.2999 15.9705 29.4332 16.0216C29.5664 16.0727 29.688 16.1501 29.7906 16.2492C29.8933 16.3483 29.9749 16.4671 30.0307 16.5984C30.0864 16.7298 30.1152 16.871 30.1152 17.0137C30.1152 17.1564 30.0864 17.2976 30.0307 17.4289C29.9749 17.5603 29.8933 17.679 29.7906 17.7781C29.688 17.8772 29.5664 17.9546 29.4332 18.0057C29.2999 18.0568 29.1578 18.0805 29.0152 18.0755L4.97357 18.0755C4.69201 18.0753 4.42203 17.9634 4.22293 17.7643C4.02383 17.5652 3.91191 17.2952 3.91173 17.0137Z" fill="white"/>
<path fill-rule="evenodd" clip-rule="evenodd" d="M16.9944 3.93054C17.2759 3.93072 17.5459 4.04265 17.745 4.24174C17.9441 4.44084 18.056 4.71082 18.0562 4.99238V29.034C18.0465 29.3091 17.9304 29.5698 17.7323 29.761C17.5342 29.9522 17.2697 30.059 16.9944 30.059C16.7191 30.059 16.4545 29.9522 16.2564 29.761C16.0584 29.5698 15.9422 29.3091 15.9325 29.034L15.9325 4.99238C15.9327 4.71082 16.0446 4.44084 16.2437 4.24174C16.4428 4.04265 16.7128 3.93072 16.9944 3.93054Z" fill="white"/>
</svg>
