<svg width="26" height="27" viewBox="0 0 26 27" fill="none" xmlns="http://www.w3.org/2000/svg">
<path d="M19.1787 17.208H17.9937L17.5737 16.803C18.5111 15.7139 19.1962 14.4311 19.58 13.0464C19.9638 11.6616 20.0368 10.2092 19.7937 8.79296C19.0887 4.62296 15.6087 1.29295 11.4087 0.782955C9.9321 0.596153 8.43236 0.749612 7.02421 1.23159C5.61607 1.71356 4.33684 2.51128 3.28442 3.5637C2.232 4.61612 1.43428 5.89535 0.952307 7.30349C0.470331 8.71164 0.316872 10.2114 0.503673 11.688C1.01367 15.888 4.34367 19.368 8.51367 20.073C9.9299 20.316 11.3824 20.2431 12.7671 19.8593C14.1518 19.4755 15.4346 18.7904 16.5237 17.853L16.9287 18.273V19.458L23.3037 25.833C23.9187 26.448 24.9237 26.448 25.5387 25.833C26.1537 25.218 26.1537 24.213 25.5387 23.598L19.1787 17.208ZM10.1787 17.208C6.44367 17.208 3.42867 14.193 3.42867 10.458C3.42867 6.72295 6.44367 3.70795 10.1787 3.70795C13.9137 3.70795 16.9287 6.72295 16.9287 10.458C16.9287 14.193 13.9137 17.208 10.1787 17.208Z" fill="white"/>
</svg>
