<svg width="16" height="17" viewBox="0 0 16 17" fill="none" xmlns="http://www.w3.org/2000/svg">
<path d="M7.99992 15.1668C4.31792 15.1668 1.33325 12.1822 1.33325 8.50016C1.33325 4.81816 4.31792 1.8335 7.99992 1.8335C11.6819 1.8335 14.6666 4.81816 14.6666 8.50016C14.6666 12.1822 11.6819 15.1668 7.99992 15.1668ZM7.99992 13.8335C9.41441 13.8335 10.771 13.2716 11.7712 12.2714C12.7713 11.2712 13.3333 9.91465 13.3333 8.50016C13.3333 7.08567 12.7713 5.72912 11.7712 4.72893C10.771 3.72873 9.41441 3.16683 7.99992 3.16683C6.58543 3.16683 5.22888 3.72873 4.22868 4.72893C3.22849 5.72912 2.66659 7.08567 2.66659 8.50016C2.66659 9.91465 3.22849 11.2712 4.22868 12.2714C5.22888 13.2716 6.58543 13.8335 7.99992 13.8335ZM8.66658 8.50016H11.3333V9.8335H7.33325V5.16683H8.66658V8.50016Z" fill="#7C7C7C"/>
</svg>
